<svg id="Layer_1" data-name="Layer 1" xmlns="http://www.w3.org/2000/svg" viewBox="0 0 432.05 124.53"  width="216px" height="62px">
    <rect x="2" y="2" width="428.05" height="120.53" rx="9" style="fill:#87b4d4" />
    <rect x="2" y="2" width="428.05" height="120.53" rx="9" style="fill:none;stroke:#254e69;stroke-miterlimit:10;stroke-width:4px" />
    <path d="M22.58,66.16V20.81a3.29,3.29,0,0,1,.91-2.3,3,3,0,0,1,4.4,0,3.23,3.23,0,0,1,.93,2.3V40.15h19V20.81a3.25,3.25,0,0,1,.91-2.3,3,3,0,0,1,4.41,0,3.34,3.34,0,0,1,.91,2.38V66.16a3.2,3.2,0,0,1-.94,2.31,3,3,0,0,1-2.18,1,2.88,2.88,0,0,1-2.22-1,3.26,3.26,0,0,1-.89-2.33V46.71H28.89V66.16A3.2,3.2,0,0,1,28,68.47a3,3,0,0,1-2.25,1,2.94,2.94,0,0,1-2.19-1A3.21,3.21,0,0,1,22.58,66.16Z" transform="translate(2 2)" style="fill:#254e69;stroke:#f1f2f2;stroke-miterlimit:10;stroke-width:1.5px" />
    <path d="M84,69.37H65a3,3,0,0,1-2.21-1,3.4,3.4,0,0,1,0-4.63,2.93,2.93,0,0,1,2.21-1h6.38V38.31h-6.3a2.87,2.87,0,0,1-2.21-1A3.23,3.23,0,0,1,62,35a3.36,3.36,0,0,1,.91-2.36,2.85,2.85,0,0,1,2.21-1h9.5a2.85,2.85,0,0,1,2.2,1A3.36,3.36,0,0,1,77.68,35V62.8h6.24a3,3,0,0,1,2.24,1,3.35,3.35,0,0,1,0,4.65A3,3,0,0,1,84,69.37ZM71.3,14.64h3.27a2.91,2.91,0,0,1,2.2,1,3.23,3.23,0,0,1,.91,2.32v2.81a3.38,3.38,0,0,1-.91,2.37,2.87,2.87,0,0,1-2.2,1H71.23a2.93,2.93,0,0,1-2.25-1,3.13,3.13,0,0,1-.87-2.27l.07-2.89a3.27,3.27,0,0,1,.91-2.32A2.93,2.93,0,0,1,71.3,14.64Z" transform="translate(2 2)" style="fill:#254e69;stroke:#f1f2f2;stroke-miterlimit:10;stroke-width:1.5px" />
    <path d="M102.33,85.35h11.25a3,3,0,0,1,2.25,1,3.35,3.35,0,0,1,0,4.65,3.08,3.08,0,0,1-2.25,1H101.93a10.06,10.06,0,0,1-7.9-4.8l-7.2-14.65A15.36,15.36,0,0,1,85.38,66a13.92,13.92,0,0,1,1.37-6.37L94,45.12a9.88,9.88,0,0,1,3.22-3.58A7.37,7.37,0,0,1,101.48,40H113.8A2.87,2.87,0,0,1,116,41a3.25,3.25,0,0,1,.91,2.3,3.36,3.36,0,0,1-.91,2.36,2.85,2.85,0,0,1-2.2,1H101.94a2.76,2.76,0,0,0-2.42,1.84L92.61,62.06a8.1,8.1,0,0,0-.81,3.8,8.89,8.89,0,0,0,.88,4.06l6.6,13.37A3.14,3.14,0,0,0,102.33,85.35Z" transform="translate(2 2)" style="fill:#254e69;stroke:#f1f2f2;stroke-miterlimit:10;stroke-width:1.5px" />
    <path d="M152.72,66.05V79.92q0,4.41-3.95,8.16c-2.63,2.5-5.35,3.75-8.14,3.75h-7.31q-4.27,0-8.17-3.8t-3.89-8.11V66.05c0-2.86,1.26-5.56,3.8-8.1a11.53,11.53,0,0,1,8.26-3.81h7.31c2.79,0,5.51,1.17,8.14,3.67S152.72,63.06,152.72,66.05Zm-25.16.28V79.61a3.55,3.55,0,0,0,1.23,2.85l2.34,2.11a3.15,3.15,0,0,0,2.19.7h7.23a4.14,4.14,0,0,0,2.9-1.21l1.89-1.76a3.16,3.16,0,0,0,1.15-2.61V66.4a3.51,3.51,0,0,0-1.15-2.89l-2.19-1.83a3.83,3.83,0,0,0-2.6-1H134.1a4.65,4.65,0,0,0-3.27,1.06l-2.11,1.91A3.38,3.38,0,0,0,127.56,66.33Z" transform="translate(2 2)" style="fill:#254e69;stroke:#f1f2f2;stroke-miterlimit:10;stroke-width:1.5px" />
    <path d="M177,106h-13.5a3,3,0,0,1-2.21-.94,3.24,3.24,0,0,1-.91-2.35,3.15,3.15,0,0,1,.91-2.3,2.93,2.93,0,0,1,2.21-.94H177a3.39,3.39,0,0,0,2.31-1l2.11-1.92a2.75,2.75,0,0,0,1.08-2.26v-10Q178.14,89,174,88.94h-4.79a9.67,9.67,0,0,1-6.68-2.69l-2.33-2.19a8.15,8.15,0,0,1-2-3,9.8,9.8,0,0,1-.83-3.83V66.4a11.71,11.71,0,0,1,.83-4.37,8.13,8.13,0,0,1,2-3.09l2.56-2.3a9.25,9.25,0,0,1,6.45-2.5h4.49a9.7,9.7,0,0,1,6.68,2.73l2.16,1.92-.08-1.29a3.25,3.25,0,0,1,.93-2.31,2.93,2.93,0,0,1,2.19-1,3.06,3.06,0,0,1,2.24,1,3.17,3.17,0,0,1,.95,2.33V94.3a9.4,9.4,0,0,1-3.19,7.14L183,103.75a8.31,8.31,0,0,1-2.73,1.56A9.46,9.46,0,0,1,177,106ZM173.46,60.7h-4.19a3.94,3.94,0,0,0-2.64,1.13l-1.93,1.68a3.38,3.38,0,0,0-1.11,2.66V77.11a3.45,3.45,0,0,0,1.23,2.5l2,1.91a3,3,0,0,0,2,.86H174a3.9,3.9,0,0,0,2.45-1.17l4.94-4.41a3.41,3.41,0,0,0,1.15-2.58v-5a3.72,3.72,0,0,0-1.3-2.93l-5.09-4.57A3.62,3.62,0,0,0,173.46,60.7Z" transform="translate(2 2)" style="fill:#254e69;stroke:#f1f2f2;stroke-miterlimit:10;stroke-width:1.5px" />
    <path d="M208.28,61.83l-8.51,5.82v21a3.23,3.23,0,0,1-.93,2.31,3,3,0,0,1-4.38,0,3.23,3.23,0,0,1-.93-2.31V57.5a3.36,3.36,0,0,1,.91-2.36,2.92,2.92,0,0,1,4.4,0,3.33,3.33,0,0,1,.93,2.36v2.19l5.68-3.64a11.43,11.43,0,0,1,6.47-1.91h2.9a8.69,8.69,0,0,1,6.43,2.77,10,10,0,0,1,2.86,6.84L225,88.63a3.08,3.08,0,0,1-.89,2.31,3,3,0,0,1-2.22,1,3,3,0,0,1-2.16-.88,3.22,3.22,0,0,1-1-2.4l-.93-24.49q-.11-3.44-3.42-3.44h-3A5.49,5.49,0,0,0,208.28,61.83Z" transform="translate(2 2)" style="fill:#254e69;stroke:#f1f2f2;stroke-miterlimit:10;stroke-width:1.5px" />
    <path d="M254.79,91.83h-19a2.94,2.94,0,0,1-2.21-1,3.4,3.4,0,0,1,0-4.63,2.93,2.93,0,0,1,2.21-1h6.38V60.78h-6.3a2.9,2.9,0,0,1-2.21-1,3.25,3.25,0,0,1-.91-2.3,3.36,3.36,0,0,1,.91-2.36,2.85,2.85,0,0,1,2.21-1h9.5a2.85,2.85,0,0,1,2.2,1,3.36,3.36,0,0,1,.91,2.36V85.27h6.24a3,3,0,0,1,2.24,1,3.35,3.35,0,0,1,0,4.65A2.94,2.94,0,0,1,254.79,91.83ZM242.1,37.11h3.27a2.94,2.94,0,0,1,2.2,1,3.25,3.25,0,0,1,.91,2.33V43.2a3.36,3.36,0,0,1-.91,2.36,2.85,2.85,0,0,1-2.2,1H242a2.93,2.93,0,0,1-2.25-1,3.14,3.14,0,0,1-.87-2.27l.07-2.89a3.3,3.3,0,0,1,.91-2.33A3,3,0,0,1,242.1,37.11Z" transform="translate(2 2)" style="fill:#254e69;stroke:#f1f2f2;stroke-miterlimit:10;stroke-width:1.5px" />
    <path d="M287.63,91.91h-6.24A8.88,8.88,0,0,1,274.75,89a9.62,9.62,0,0,1-2.78-7V60.78h-3.2a2.93,2.93,0,0,1-2.2-.94,3.2,3.2,0,0,1-.91-2.34,3.25,3.25,0,0,1,.91-2.33,2.94,2.94,0,0,1,2.2-1H272v-8a3.21,3.21,0,0,1,.91-2.32,3,3,0,0,1,4.38,0,3.2,3.2,0,0,1,.94,2.3v8h12.55a2.93,2.93,0,0,1,2.19,1,3.28,3.28,0,0,1,.92,2.31,3.22,3.22,0,0,1-.92,2.32,3,3,0,0,1-2.19,1H278.2V82.07a3.21,3.21,0,0,0,.95,2.3,3,3,0,0,0,2.24,1h6.09c1.65,0,2.76-.94,3.3-2.83s1.6-2.83,3.15-2.83a2.92,2.92,0,0,1,2.25,1,3.45,3.45,0,0,1,.87,2.41A8.88,8.88,0,0,1,294.4,89,8.7,8.7,0,0,1,287.63,91.91Z" transform="translate(2 2)" style="fill:#254e69;stroke:#f1f2f2;stroke-miterlimit:10;stroke-width:1.5px" />
    <path d="M327,91.83H308a2.94,2.94,0,0,1-2.21-1,3.4,3.4,0,0,1,0-4.63,2.93,2.93,0,0,1,2.21-1h6.38V60.78h-6.3a2.9,2.9,0,0,1-2.21-1,3.25,3.25,0,0,1-.91-2.3,3.36,3.36,0,0,1,.91-2.36,2.85,2.85,0,0,1,2.21-1h9.5a2.85,2.85,0,0,1,2.2,1,3.36,3.36,0,0,1,.91,2.36V85.27h6.24a3,3,0,0,1,2.24,1,3.35,3.35,0,0,1,0,4.65A2.94,2.94,0,0,1,327,91.83ZM314.3,37.11h3.27a2.94,2.94,0,0,1,2.2,1,3.25,3.25,0,0,1,.91,2.33V43.2a3.36,3.36,0,0,1-.91,2.36,2.85,2.85,0,0,1-2.2,1h-3.34a2.93,2.93,0,0,1-2.25-1,3.14,3.14,0,0,1-.87-2.27l.07-2.89a3.3,3.3,0,0,1,.91-2.33A3,3,0,0,1,314.3,37.11Z" transform="translate(2 2)" style="fill:#254e69;stroke:#f1f2f2;stroke-miterlimit:10;stroke-width:1.5px" />
    <path d="M369.33,66.05V79.92q0,4.41-4,8.16c-2.63,2.5-5.35,3.75-8.14,3.75h-7.31q-4.28,0-8.17-3.8t-3.89-8.11V66.05q0-4.29,3.8-8.1a11.53,11.53,0,0,1,8.26-3.81h7.31c2.79,0,5.51,1.17,8.14,3.67S369.33,63.06,369.33,66.05Zm-25.16.28V79.61a3.55,3.55,0,0,0,1.22,2.85l2.34,2.11a3.15,3.15,0,0,0,2.19.7h7.24a4.14,4.14,0,0,0,2.89-1.21l1.89-1.76a3.16,3.16,0,0,0,1.15-2.61V66.4a3.51,3.51,0,0,0-1.15-2.89l-2.19-1.83a3.82,3.82,0,0,0-2.59-1H350.7a4.65,4.65,0,0,0-3.27,1.06l-2.11,1.91A3.37,3.37,0,0,0,344.17,66.33Z" transform="translate(2 2)" style="fill:#254e69;stroke:#f1f2f2;stroke-miterlimit:10;stroke-width:1.5px" />
    <path d="M388.78,61.83l-8.51,5.82v21a3.23,3.23,0,0,1-.93,2.31,3,3,0,0,1-4.38,0,3.23,3.23,0,0,1-.93-2.31V57.5a3.4,3.4,0,0,1,.91-2.36,2.92,2.92,0,0,1,4.4,0,3.33,3.33,0,0,1,.93,2.36v2.19L386,56.05a11.38,11.38,0,0,1,6.46-1.91h2.9a8.69,8.69,0,0,1,6.43,2.77,10,10,0,0,1,2.86,6.84l.85,24.88a3.08,3.08,0,0,1-.89,2.31,3,3,0,0,1-2.22,1A3,3,0,0,1,400.2,91a3.22,3.22,0,0,1-1-2.4l-.93-24.49q-.1-3.44-3.42-3.44h-3.05A5.49,5.49,0,0,0,388.78,61.83Z" transform="translate(2 2)" style="fill:#254e69;stroke:#f1f2f2;stroke-miterlimit:10;stroke-width:1.5px" />
</svg>