<svg id="Layer_1" data-name="Layer 1" xmlns="http://www.w3.org/2000/svg" viewBox="0 0 406.96 99.46"><path d="M9.5,64.68V16.49a3.51,3.51,0,0,1,1-2.45,3.17,3.17,0,0,1,4.68,0,3.48,3.48,0,0,1,1,2.45V37H36.31V16.49a3.47,3.47,0,0,1,1-2.45,3.07,3.07,0,0,1,2.34-1A3.1,3.1,0,0,1,42,14a3.62,3.62,0,0,1,1,2.54v48.1a3.4,3.4,0,0,1-1,2.45,3.14,3.14,0,0,1-2.31,1,3.07,3.07,0,0,1-2.36-1,3.46,3.46,0,0,1-.95-2.47V44H16.2V64.68a3.4,3.4,0,0,1-1,2.45,3.24,3.24,0,0,1-2.39,1,3.15,3.15,0,0,1-2.33-1A3.44,3.44,0,0,1,9.5,64.68Z" transform="translate(-8.5 -8.94)" style="fill:#87b4d4;stroke:#254e69;stroke-miterlimit:10;stroke-width:2px"/><path d="M74.74,68.08H54.56a3.14,3.14,0,0,1-2.35-1,3.6,3.6,0,0,1,0-4.92,3.1,3.1,0,0,1,2.35-1h6.78v-26h-6.7a3.1,3.1,0,0,1-2.35-1,3.5,3.5,0,0,1-1-2.45,3.62,3.62,0,0,1,1-2.51A3,3,0,0,1,54.64,28H64.73a3.06,3.06,0,0,1,2.35,1.06,3.61,3.61,0,0,1,1,2.51V61.11h6.63a3.22,3.22,0,0,1,2.38,1,3.39,3.39,0,0,1,1,2.47,3.43,3.43,0,0,1-1,2.47A3.16,3.16,0,0,1,74.74,68.08ZM61.26,9.94h3.47a3.12,3.12,0,0,1,2.35,1,3.47,3.47,0,0,1,1,2.47v3a3.6,3.6,0,0,1-1,2.51A3.06,3.06,0,0,1,64.73,20H61.18A3.05,3.05,0,0,1,58.8,18.9a3.33,3.33,0,0,1-.93-2.41L58,13.42a3.47,3.47,0,0,1,1-2.47A3.12,3.12,0,0,1,61.26,9.94Z" transform="translate(-8.5 -8.94)" style="fill:#87b4d4;stroke:#254e69;stroke-miterlimit:10;stroke-width:2px"/><path d="M92.38,85.48h12a3.25,3.25,0,0,1,2.39,1,3.55,3.55,0,0,1,0,4.94,3.27,3.27,0,0,1-2.39,1H92a10.76,10.76,0,0,1-8.4-5.1L75.91,71.78a16.3,16.3,0,0,1-1.54-6.89,14.62,14.62,0,0,1,1.46-6.76l7.72-15.4A10.61,10.61,0,0,1,87,38.93a7.84,7.84,0,0,1,4.49-1.64h13.09a3.11,3.11,0,0,1,2.35,1,3.49,3.49,0,0,1,1,2.45,3.61,3.61,0,0,1-1,2.51,3.06,3.06,0,0,1-2.35,1.06H92A2.92,2.92,0,0,0,89.4,46.3L82.05,60.74a8.62,8.62,0,0,0-.86,4,9.47,9.47,0,0,0,.94,4.32l7,14.2A3.35,3.35,0,0,0,92.38,85.48Z" transform="translate(-8.5 -8.94)" style="fill:#254e69;stroke:#254e69;stroke-miterlimit:10;stroke-width:2px"/><path d="M145.92,65V79.71q0,4.7-4.2,8.67t-8.65,4H125.3q-4.53,0-8.67-4.05t-4.14-8.61V65q0-4.58,4-8.62a12.25,12.25,0,0,1,8.77-4h7.77q4.45-.09,8.65,3.9C144.52,58.88,145.92,61.79,145.92,65Zm-26.73.29V79.38a3.79,3.79,0,0,0,1.3,3L123,84.65a3.32,3.32,0,0,0,2.32.75H133a4.41,4.41,0,0,0,3.08-1.29l2-1.87a3.39,3.39,0,0,0,1.22-2.78V65.35a3.74,3.74,0,0,0-1.22-3.07l-2.33-2a4.07,4.07,0,0,0-2.76-1h-6.86a4.93,4.93,0,0,0-3.47,1.12l-2.25,2A3.6,3.6,0,0,0,119.19,65.27Z" transform="translate(-8.5 -8.94)" style="fill:#254e69;stroke:#254e69;stroke-miterlimit:10;stroke-width:2px"/><path d="M171.74,107.39H157.39a3.17,3.17,0,0,1-2.35-1,3.47,3.47,0,0,1-1-2.49,3.39,3.39,0,0,1,1-2.45,3.15,3.15,0,0,1,2.35-1h14.35a3.57,3.57,0,0,0,2.45-1l2.24-2A2.92,2.92,0,0,0,177.58,95V84.36q-4.65,4.94-9.07,4.94h-5.09a10.27,10.27,0,0,1-7.09-2.87l-2.49-2.32A8.75,8.75,0,0,1,151.73,81a10.34,10.34,0,0,1-.88-4.07V65.35a12.36,12.36,0,0,1,.88-4.65,8.61,8.61,0,0,1,2.11-3.28L156.56,55a9.86,9.86,0,0,1,6.86-2.65h4.77a10.32,10.32,0,0,1,7.1,2.9l2.29,2-.08-1.37a3.46,3.46,0,0,1,1-2.45,3.13,3.13,0,0,1,2.33-1,3.25,3.25,0,0,1,2.39,1,3.38,3.38,0,0,1,1,2.47V95a10,10,0,0,1-3.39,7.6L178.13,105a8.82,8.82,0,0,1-2.9,1.66A9.93,9.93,0,0,1,171.74,107.39ZM168,59.29H163.5a4.18,4.18,0,0,0-2.8,1.2l-2,1.79a3.55,3.55,0,0,0-1.18,2.82V76.72a3.66,3.66,0,0,0,1.3,2.66l2.17,2a3.19,3.19,0,0,0,2.17.91h5.4a4.13,4.13,0,0,0,2.6-1.24l5.25-4.69a3.59,3.59,0,0,0,1.22-2.74V68.38a3.93,3.93,0,0,0-1.38-3.11l-5.4-4.86A3.9,3.9,0,0,0,168,59.29Z" transform="translate(-8.5 -8.94)" style="fill:#254e69;stroke:#254e69;stroke-miterlimit:10;stroke-width:2px"/><path d="M205,60.49l-9,6.19V89a3.4,3.4,0,0,1-1,2.44,3.12,3.12,0,0,1-4.65,0,3.41,3.41,0,0,1-1-2.44V55.89a3.56,3.56,0,0,1,1-2.51,3,3,0,0,1,2.34-1.06,3.07,3.07,0,0,1,2.33,1.06,3.53,3.53,0,0,1,1,2.51v2.32l6-3.86a12.13,12.13,0,0,1,6.87-2h3.08a9.25,9.25,0,0,1,6.83,2.94,10.62,10.62,0,0,1,3,7.27L222.68,89a3.29,3.29,0,0,1-1,2.44,3.13,3.13,0,0,1-2.36,1,3.22,3.22,0,0,1-2.29-.93,3.48,3.48,0,0,1-1-2.55l-1-26q-.12-3.64-3.64-3.65h-3.24A5.81,5.81,0,0,0,205,60.49Z" transform="translate(-8.5 -8.94)" style="fill:#254e69;stroke:#254e69;stroke-miterlimit:10;stroke-width:2px"/><path d="M254.37,92.37H234.18a3.09,3.09,0,0,1-2.34-1,3.43,3.43,0,0,1-1-2.47,3.47,3.47,0,0,1,1-2.45,3.07,3.07,0,0,1,2.34-1H241v-26h-6.7a3.1,3.1,0,0,1-2.35-1,3.51,3.51,0,0,1-1-2.45,3.6,3.6,0,0,1,1-2.51,3.06,3.06,0,0,1,2.35-1.06h10.09a3,3,0,0,1,2.35,1.06,3.61,3.61,0,0,1,1,2.51V85.4h6.62a3.24,3.24,0,0,1,2.39,1,3.38,3.38,0,0,1,1,2.47,3.44,3.44,0,0,1-1,2.47A3.15,3.15,0,0,1,254.37,92.37ZM240.88,34.22h3.47a3.11,3.11,0,0,1,2.35,1,3.48,3.48,0,0,1,1,2.47v3a3.62,3.62,0,0,1-1,2.51,3.08,3.08,0,0,1-2.35,1.06h-3.54a3.07,3.07,0,0,1-2.39-1.08,3.41,3.41,0,0,1-.93-2.41l.08-3.07a3.43,3.43,0,0,1,1-2.47A3.09,3.09,0,0,1,240.88,34.22Z" transform="translate(-8.5 -8.94)" style="fill:#254e69;stroke:#254e69;stroke-miterlimit:10;stroke-width:2px"/><path d="M289.26,92.45h-6.63a9.47,9.47,0,0,1-7.06-3.07A10.28,10.28,0,0,1,272.62,82V59.37h-3.39a3.16,3.16,0,0,1-2.35-1,3.66,3.66,0,0,1,0-5,3.11,3.11,0,0,1,2.35-1h3.47V43.85a3.47,3.47,0,0,1,1-2.47,3.15,3.15,0,0,1,4.66,0,3.4,3.4,0,0,1,1,2.45V52.4h13.33a3.1,3.1,0,0,1,2.32,1,3.55,3.55,0,0,1,0,4.92,3.14,3.14,0,0,1-2.32,1H279.24V82a3.41,3.41,0,0,0,1,2.45,3.21,3.21,0,0,0,2.38,1h6.47q2.64,0,3.51-3c.58-2,1.69-3,3.35-3a3.06,3.06,0,0,1,2.38,1,3.64,3.64,0,0,1,.93,2.55,9.47,9.47,0,0,1-2.82,6.29A9.24,9.24,0,0,1,289.26,92.45Z" transform="translate(-8.5 -8.94)" style="fill:#254e69;stroke:#254e69;stroke-miterlimit:10;stroke-width:2px"/><path d="M331.08,92.37H310.9a3.11,3.11,0,0,1-2.35-1,3.48,3.48,0,0,1-1-2.47,3.51,3.51,0,0,1,1-2.45,3.09,3.09,0,0,1,2.35-1h6.78v-26H311a3.07,3.07,0,0,1-2.34-1,3.47,3.47,0,0,1-1-2.45,3.56,3.56,0,0,1,1-2.51A3,3,0,0,1,311,52.32h10.1a3,3,0,0,1,2.34,1.06,3.56,3.56,0,0,1,1,2.51V85.4H331a3.24,3.24,0,0,1,2.39,1,3.58,3.58,0,0,1,0,4.94A3.13,3.13,0,0,1,331.08,92.37ZM317.6,34.22h3.47a3.09,3.09,0,0,1,2.34,1,3.43,3.43,0,0,1,1,2.47v3a3.58,3.58,0,0,1-1,2.51,3.06,3.06,0,0,1-2.34,1.06h-3.55a3.09,3.09,0,0,1-2.39-1.08,3.36,3.36,0,0,1-.92-2.41l.08-3.07a3.47,3.47,0,0,1,1-2.47A3.13,3.13,0,0,1,317.6,34.22Z" transform="translate(-8.5 -8.94)" style="fill:#254e69;stroke:#254e69;stroke-miterlimit:10;stroke-width:2px"/><path d="M376.06,65V79.71q0,4.7-4.19,8.67t-8.66,4h-7.77q-4.53,0-8.67-4.05t-4.14-8.61V65q0-4.58,4-8.62a12.25,12.25,0,0,1,8.77-4h7.77q4.46-.09,8.66,3.9C374.66,58.88,376.06,61.79,376.06,65Zm-26.73.29V79.38a3.82,3.82,0,0,0,1.3,3l2.49,2.24a3.32,3.32,0,0,0,2.32.75h7.69a4.41,4.41,0,0,0,3.08-1.29l2-1.87a3.39,3.39,0,0,0,1.22-2.78V65.35a3.74,3.74,0,0,0-1.22-3.07l-2.33-2a4.07,4.07,0,0,0-2.76-1h-6.86a4.94,4.94,0,0,0-3.47,1.12l-2.25,2A3.6,3.6,0,0,0,349.33,65.27Z" transform="translate(-8.5 -8.94)" style="fill:#254e69;stroke:#254e69;stroke-miterlimit:10;stroke-width:2px"/><path d="M396.74,60.49l-9.05,6.19V89a3.41,3.41,0,0,1-1,2.44,3.12,3.12,0,0,1-4.65,0,3.41,3.41,0,0,1-1-2.44V55.89a3.61,3.61,0,0,1,1-2.51,3.1,3.1,0,0,1,4.67,0,3.54,3.54,0,0,1,1,2.51v2.32l6-3.86a12.13,12.13,0,0,1,6.87-2h3.08a9.25,9.25,0,0,1,6.83,2.94,10.57,10.57,0,0,1,3,7.27L414.46,89a3.25,3.25,0,0,1-.95,2.44,3.1,3.1,0,0,1-2.36,1,3.24,3.24,0,0,1-2.29-.93,3.44,3.44,0,0,1-1-2.55l-1-26q-.12-3.64-3.63-3.65H400A5.76,5.76,0,0,0,396.74,60.49Z" transform="translate(-8.5 -8.94)" style="fill:#254e69;stroke:#254e69;stroke-miterlimit:10;stroke-width:2px"/></svg>